<svg width="24" height="24" viewBox="0 0 24 24" fill="none" xmlns="http://www.w3.org/2000/svg">
<path fill-rule="evenodd" clip-rule="evenodd" d="M12 22.3594C17.7213 22.3594 22.3594 17.7213 22.3594 12C22.3594 6.27868 17.7213 1.64062 12 1.64062C6.27868 1.64062 1.64062 6.27868 1.64062 12C1.64062 17.7213 6.27868 22.3594 12 22.3594ZM12 20.8594C7.1071 20.8594 3.14062 16.893 3.14062 12.0001C3.14062 7.10716 7.1071 3.14068 12 3.14068C16.8929 3.14068 20.8594 7.10716 20.8594 12.0001C20.8594 16.893 16.8929 20.8594 12 20.8594ZM11.2129 14.135V13.565C11.2129 13.0083 11.3687 12.7167 11.7331 12.3131L12.8962 11.0337C13.5029 10.3664 13.711 10.0466 13.711 9.57357C13.711 8.78109 13.0172 8.28056 12.0277 8.28056C11.0562 8.28056 10.4315 8.75318 10.2235 9.60148C10.2061 9.68484 10.1369 9.72671 10.0324 9.71276L8.93938 9.55961C8.83487 9.54565 8.7831 9.49021 8.80004 9.40647C9.06082 8.07158 10.2583 7.19536 12.063 7.19536C13.9364 7.19536 15.2031 8.18247 15.2031 9.55922C15.2031 10.2269 14.909 10.7134 14.3187 11.3671L13.156 12.6466C12.8091 13.0219 12.7046 13.2165 12.7046 13.6891V14.1338C12.7046 14.2172 12.6354 14.2726 12.5314 14.2726H11.3861C11.2821 14.2742 11.2129 14.2183 11.2129 14.135ZM11.1263 15.4701C11.1263 15.3868 11.1955 15.3313 11.3 15.3313H12.619C12.723 15.3313 12.7922 15.3872 12.7922 15.4701V16.6658C12.7922 16.7496 12.7225 16.8046 12.619 16.8046H11.3C11.195 16.8046 11.1263 16.7492 11.1263 16.6658V15.4701Z" fill="#3895FF"/>
</svg>
